<svg width="23" height="40" viewBox="0 0 23 40" fill="none" xmlns="http://www.w3.org/2000/svg">
<path d="M18.5104 38.9584L0.958324 21.4584C0.749991 21.25 0.602075 21.0243 0.514575 20.7813C0.427075 20.5382 0.38402 20.2778 0.385409 20C0.385409 19.7222 0.428464 19.4618 0.514575 19.2188C0.600686 18.9757 0.748602 18.75 0.958324 18.5417L18.5104 0.989603C18.9965 0.503492 19.6042 0.260437 20.3333 0.260437C21.0625 0.260437 21.6875 0.520854 22.2083 1.04169C22.7292 1.56252 22.9896 2.17016 22.9896 2.8646C22.9896 3.55905 22.7292 4.16669 22.2083 4.68752L6.89583 20L22.2083 35.3125C22.6944 35.7986 22.9375 36.3979 22.9375 37.1104C22.9375 37.8229 22.6771 38.4389 22.1562 38.9584C21.6354 39.4792 21.0278 39.7396 20.3333 39.7396C19.6389 39.7396 19.0312 39.4792 18.5104 38.9584Z" fill="#0B0A0A"/>
</svg>
