<svg width="156" height="43" viewBox="0 0 156 43" fill="none" xmlns="http://www.w3.org/2000/svg">
<path d="M10.3404 42.5468C16.0244 42.5468 19.9104 38.1388 20.0844 31.4688C20.0844 31.1208 19.8524 30.9468 19.5044 30.9468H17.1844C16.8364 30.9468 16.6044 31.1208 16.6044 31.5268C16.4884 36.3988 14.1684 39.2988 10.3404 39.2988C6.57043 39.2988 4.36643 36.8048 4.36643 32.5708V10.7628C4.36643 6.5288 6.57043 4.03479 10.3404 4.03479C13.8204 4.03479 16.1404 6.70279 16.3144 11.5168C16.3144 11.9228 16.5464 12.0968 16.8944 12.0968H19.2144C19.5624 12.0968 19.7944 11.8648 19.7944 11.5168C19.6204 5.07879 15.7924 0.786795 10.3404 0.786795C4.65643 0.786795 0.886434 4.78879 0.886434 10.7628V32.5708C0.886434 38.5448 4.65643 42.5468 10.3404 42.5468ZM26.6044 9.1968C27.8804 9.1968 28.8664 8.1528 28.8664 6.9348C28.8664 5.60079 27.8804 4.6728 26.6044 4.6728C25.2704 4.6728 24.3424 5.60079 24.3424 6.9348C24.3424 8.2108 25.2704 9.1968 26.6044 9.1968ZM25.5604 41.9668H27.7064C28.0544 41.9668 28.2864 41.7348 28.2864 41.3868V13.5468C28.2864 13.1988 28.0544 12.9668 27.7064 12.9668H25.5604C25.2124 12.9668 24.9804 13.1988 24.9804 13.5468V41.3868C24.9804 41.7348 25.2124 41.9668 25.5604 41.9668ZM35.5156 41.9668H37.6616C38.0096 41.9668 38.2416 41.7348 38.2416 41.3868V21.4928C38.2416 17.9548 40.2716 15.5188 43.5776 15.5188C46.8836 15.5188 48.9136 17.9548 48.9136 21.4928V41.3868C48.9136 41.7348 49.1456 41.9668 49.4936 41.9668H51.6396C51.9876 41.9668 52.2196 41.7348 52.2196 41.3868V21.4928C52.2196 16.2728 48.7396 12.3868 43.5776 12.3868C38.4156 12.3868 34.9356 16.2728 34.9356 21.4928V41.3868C34.9356 41.7348 35.1676 41.9668 35.5156 41.9668ZM70.9654 2.99079H68.3554C68.0654 2.99079 67.8334 3.1648 67.6594 3.3968L64.2374 8.84879C64.0054 9.2548 64.1794 9.5448 64.6434 9.5448H66.5574C66.8474 9.5448 67.1374 9.4868 67.3114 9.1968L71.3134 3.6868C71.6034 3.3388 71.4294 2.99079 70.9654 2.99079ZM66.9054 42.4888C72.0094 42.4888 75.5474 38.8348 75.7214 33.3828C75.7214 33.0348 75.4894 32.8028 75.1414 32.8028H72.9954C72.6474 32.8028 72.4154 32.9768 72.4154 33.3828C72.2994 36.9208 70.1534 39.2988 66.9054 39.2988C63.4254 39.2988 61.3374 36.8628 61.3374 33.3828V29.8448H66.9054C72.2414 29.8448 75.7794 26.1908 75.7794 21.3768C75.7794 16.2728 72.2414 12.4448 66.9054 12.4448C61.4534 12.4448 58.0314 16.2728 58.0314 21.6088V33.3828C58.0314 38.8348 61.5694 42.4888 66.9054 42.4888ZM61.3374 26.6548V21.6088C61.3374 18.0128 63.3094 15.6348 66.9054 15.6348C70.3854 15.6348 72.4734 18.0128 72.4734 21.3768C72.4734 24.4508 70.3854 26.6548 66.9054 26.6548H61.3374ZM82.3144 41.9668H84.4604C84.8084 41.9668 85.0404 41.7348 85.0404 41.3868V1.94679C85.0404 1.59879 84.8084 1.36679 84.4604 1.36679H82.3144C81.9664 1.36679 81.7344 1.59879 81.7344 1.94679V41.3868C81.7344 41.7348 81.9664 41.9668 82.3144 41.9668ZM99.8054 42.4888C105.141 42.4888 108.621 38.6608 108.621 33.4988V21.3768C108.621 16.2728 105.199 12.3868 99.8634 12.3868C94.8754 12.3868 91.6274 15.9828 91.3374 20.9128C91.3374 21.2608 91.5694 21.4928 91.9174 21.4928H94.0634C94.4114 21.4928 94.5854 21.3188 94.6434 20.9128C94.8754 17.7228 96.7894 15.5768 99.8634 15.5768C103.285 15.5768 105.315 18.0128 105.315 21.3768V25.1468H99.6894C94.4114 25.1468 90.8734 28.9168 90.8734 33.4988C90.8734 38.6608 94.4114 42.4888 99.8054 42.4888ZM99.8054 39.2988C96.2674 39.2988 94.1794 36.9208 94.1794 33.4988C94.1794 30.6568 96.2674 28.3368 99.6894 28.3368H105.315V33.4988C105.315 36.9208 103.285 39.2988 99.8054 39.2988ZM114.982 41.9668H117.128C117.476 41.9668 117.708 41.7348 117.708 41.3868V21.4928C117.708 17.9548 119.738 15.5188 123.044 15.5188C126.35 15.5188 128.38 17.9548 128.38 21.4928V41.3868C128.38 41.7348 128.612 41.9668 128.96 41.9668H131.106C131.454 41.9668 131.686 41.7348 131.686 41.3868V21.4928C131.686 16.2728 128.206 12.3868 123.044 12.3868C117.882 12.3868 114.402 16.2728 114.402 21.4928V41.3868C114.402 41.7348 114.634 41.9668 114.982 41.9668ZM154.666 1.36679H152.52C152.172 1.36679 151.94 1.59879 151.94 1.94679V15.2868C150.548 13.5468 148.634 12.3868 146.372 12.3868C141.036 12.3868 137.498 16.2728 137.498 21.4928V33.4408C137.498 38.6608 141.036 42.5468 146.372 42.5468C151.708 42.5468 155.246 38.6608 155.246 33.4408V1.94679C155.246 1.59879 155.014 1.36679 154.666 1.36679ZM151.94 33.4408C151.94 36.9208 149.852 39.3568 146.372 39.3568C142.892 39.3568 140.804 36.9208 140.804 33.4408V21.4928C140.804 18.0128 142.892 15.5768 146.372 15.5768C149.852 15.5768 151.94 18.0128 151.94 21.4928V33.4408Z" fill="white"/>
</svg>
